<?xml version="1.0" encoding="utf-8"?>
<!-- Generator: Adobe Illustrator 18.0.0, SVG Export Plug-In . SVG Version: 6.00 Build 0)  -->
<!DOCTYPE svg PUBLIC "-//W3C//DTD SVG 1.1//EN" "http://www.w3.org/Graphics/SVG/1.1/DTD/svg11.dtd">
<svg version="1.1" id="Icon_Set" xmlns="http://www.w3.org/2000/svg" xmlns:xlink="http://www.w3.org/1999/xlink" x="0px" y="0px"
	 viewBox="0 0 512 512" style="enable-background:new 0 0 512 512;" xml:space="preserve">
<style type="text/css">
	.st0{fill:#4C4372;}
	.st1{fill:#F0C48A;}
	.st2{fill:#7BABF1;}
	.st3{fill:#FD919E;}
	.st4{fill:#A4CFF2;}
	.st5{fill:#D3E6F8;}
	.st6{fill:#FFFFFF;}
	.st7{fill:#E8677D;}
</style>
<g>
	<g>
		<g>
			<g>
				<circle class="st1" cx="256" cy="255.837" r="207"/>
			</g>
		</g>
	</g>
	<g>
		<g>
			<g>
				<path class="st5" d="M337.63,475.757H40.176c-18.952,0-34.315-15.363-34.315-34.315V70.231
					c0-18.952,15.364-34.315,34.315-34.315H337.63V475.757z"/>
			</g>
		</g>
		<g>
			<g>
				<rect x="293" y="37" class="st4" width="44" height="439"/>
			</g>
		</g>
		<g>
			<g>
				<path class="st2" d="M6,70.231v371.211C6,460.394,21.225,476,40.176,476H56V37H40.176C21.225,37,6,51.279,6,70.231z"/>
			</g>
		</g>
		<g>
			<g>
				<rect x="92.778" y="308.001" class="st6" width="200.452" height="99.466"/>
			</g>
		</g>
		<g>
			<g>
				<rect x="262.591" y="308.001" class="st5" width="30.64" height="99.466"/>
			</g>
		</g>
		<g>
			<g>
				<polygon class="st3" points="486,171 486,319 337,319 337,222 374.47,222 396.857,189.196 429.166,244.852 462.32,171 				"/>
			</g>
		</g>
		<g>
			<g>
				<path class="st0" d="M246.281,213c-0.008,0-0.015,0-0.019,0H139.748c-2.095,0-4.031-1.16-5.077-2.975
					c-1.047-1.815-1.046-4.072,0.004-5.885l26.628-46.041l26.626-46.077c1.048-1.813,2.982-2.932,5.074-2.932
					c2.093,0,4.028,1.114,5.075,2.927l53.036,91.721c0.649,0.943,1.027,2.128,1.027,3.359C252.142,210.334,249.518,213,246.281,213z
					 M149.91,202h86.191l-43.096-74.532L149.91,202z"/>
			</g>
		</g>
		<g>
			<g>
				<g>
					<circle class="st3" cx="193.004" cy="114.977" r="25.928"/>
				</g>
			</g>
		</g>
		<g>
			<g>
				<g>
					<circle class="st3" cx="139.826" cy="207.084" r="25.928"/>
				</g>
			</g>
		</g>
		<g>
			<g>
				<g>
					<circle class="st3" cx="246.183" cy="207.084" r="25.928"/>
				</g>
			</g>
		</g>
		<g>
			<g>
				<g>
					<path class="st0" d="M193.005,146.766c-17.529,0-31.79-14.261-31.79-31.79c0-17.528,14.261-31.789,31.79-31.789
						c17.529,0,31.79,14.261,31.79,31.789C224.794,132.505,210.534,146.766,193.005,146.766z M193.005,94.91
						c-11.065,0-20.067,9.001-20.067,20.066c0,11.065,9.002,20.067,20.067,20.067c11.065,0,20.067-9.002,20.067-20.067
						C213.071,103.911,204.069,94.91,193.005,94.91z"/>
				</g>
			</g>
		</g>
		<g>
			<g>
				<g>
					<path class="st0" d="M139.826,238.874c-17.529,0-31.79-14.261-31.79-31.79c0-17.528,14.261-31.789,31.79-31.789
						c17.529,0,31.79,14.261,31.79,31.789C171.616,224.613,157.355,238.874,139.826,238.874z M139.826,187.018
						c-11.065,0-20.067,9.001-20.067,20.066c0,11.065,9.002,20.067,20.067,20.067c11.065,0,20.067-9.002,20.067-20.067
						C159.893,196.019,150.891,187.018,139.826,187.018z"/>
				</g>
			</g>
		</g>
		<g>
			<g>
				<g>
					<path class="st0" d="M246.183,238.874c-17.529,0-31.79-14.261-31.79-31.79c0-17.528,14.261-31.789,31.79-31.789
						c17.528,0,31.789,14.261,31.789,31.789C277.972,224.613,263.711,238.874,246.183,238.874z M246.183,187.018
						c-11.065,0-20.067,9.001-20.067,20.066c0,11.065,9.002,20.067,20.067,20.067c11.065,0,20.066-9.002,20.066-20.067
						C266.249,196.019,257.248,187.018,246.183,187.018z"/>
				</g>
			</g>
		</g>
		<g>
			<g>
				<path class="st0" d="M55.783,482H40.176C18.078,482,0,463.567,0,441.442V70.231C0,48.176,18.078,31,40.176,31h15.607
					C59.02,31,62,32.858,62,36.095v439.609C62,478.942,59.02,482,55.783,482z M40.176,42C24.542,42,12,54.64,12,70.231v371.211
					C12,457.102,24.542,470,40.176,470H50V42H40.176z"/>
			</g>
		</g>
		<g>
			<g>
				<path class="st0" d="M337.63,481.619H40.176C18.023,481.619,0,463.595,0,441.442V70.231c0-22.153,18.023-40.176,40.176-40.176
					H337.63c3.237,0,5.861,2.624,5.861,5.861v439.841C343.492,478.994,340.867,481.619,337.63,481.619z M40.176,41.777
					c-15.69,0-28.453,12.764-28.453,28.453v371.211c0,15.69,12.764,28.453,28.453,28.453h291.592V41.777H40.176z"/>
			</g>
		</g>
		<g>
			<g>
				<path class="st0" d="M429.165,250.595c-2.082,0-4.016-1.107-5.069-2.92l-27.651-47.656l-17.141,25.219
					c-1.093,1.594-2.902,2.762-4.835,2.762h-37.336c-3.237,0-5.861-2.763-5.861-6s2.625-6,5.861-6h34.248l20.641-30.187
					c1.138-1.659,3.054-2.666,5.055-2.582c2.009,0.076,3.84,1.157,4.849,2.897l26.574,45.789l28.472-63.428
					c0.945-2.105,3.039-3.489,5.347-3.489h43.819c3.237,0,5.862,2.763,5.862,6s-2.625,6-5.862,6h-40.026l-31.6,70.249
					c-0.901,2.005-2.848,3.281-5.044,3.395C429.368,250.649,429.266,250.595,429.165,250.595z"/>
			</g>
		</g>
		<g>
			<g>
				<path class="st0" d="M506.138,325H337.133c-3.237,0-5.861-2.763-5.861-6s2.625-6,5.861-6h169.005c3.237,0,5.862,2.763,5.862,6
					S509.375,325,506.138,325z"/>
			</g>
		</g>
		<g>
			<g>
				<path class="st0" d="M378,324.284c-3.237,0-6-2.624-6-5.861V296.93c0-3.237,2.763-5.862,6-5.862s6,2.625,6,5.862v21.492
					C384,321.659,381.237,324.284,378,324.284z"/>
			</g>
		</g>
		<g>
			<g>
				<path class="st0" d="M432,324.284c-3.237,0-6-2.624-6-5.861V296.93c0-3.237,2.763-5.862,6-5.862s6,2.625,6,5.862v21.492
					C438,321.659,435.237,324.284,432,324.284z"/>
			</g>
		</g>
		<g>
			<g>
				<path class="st0" d="M486.5,324.284c-3.237,0-5.5-2.624-5.5-5.861V296.93c0-3.237,2.263-5.862,5.5-5.862s5.5,2.625,5.5,5.862
					v21.492C492,321.659,489.737,324.284,486.5,324.284z"/>
			</g>
		</g>
		<g>
			<g>
				<path class="st0" d="M293.23,413.329H92.779c-3.237,0-5.862-2.625-5.862-5.862v-99.466c0-3.237,2.625-5.861,5.862-5.861H293.23
					c3.237,0,5.861,2.624,5.861,5.861v99.466C299.092,410.705,296.467,413.329,293.23,413.329z M98.64,401.607h188.729v-87.743
					H98.64V401.607z"/>
			</g>
		</g>
	</g>
</g>
</svg>
