<?xml version="1.0" encoding="utf-8"?>
<!-- Generator: Adobe Illustrator 18.0.0, SVG Export Plug-In . SVG Version: 6.00 Build 0)  -->
<!DOCTYPE svg PUBLIC "-//W3C//DTD SVG 1.1//EN" "http://www.w3.org/Graphics/SVG/1.1/DTD/svg11.dtd">
<svg version="1.1" id="Icon_Set" xmlns="http://www.w3.org/2000/svg" xmlns:xlink="http://www.w3.org/1999/xlink" x="0px" y="0px"
	 viewBox="0 0 512 512" style="enable-background:new 0 0 512 512;" xml:space="preserve">
<style type="text/css">
	.st0{fill:#4C4372;}
	.st1{fill:#F0C48A;}
	.st2{fill:#7BABF1;}
	.st3{fill:#FD919E;}
	.st4{fill:#A4CFF2;}
	.st5{fill:#D3E6F8;}
	.st6{fill:#FFFFFF;}
	.st7{fill:#E8677D;}
</style>
<g>
	<g>
		<g>
			<g>
				<circle class="st1" cx="256" cy="256" r="207"/>
			</g>
		</g>
	</g>
	<g>
		<g>
			<g>
				<path class="st4" d="M354.933,105.517c-41.253,0.193-78.58,16.988-105.651,44.044c-14.346,14.339-36.834,16.054-53.706,4.796
					c-18.938-12.636-41.605-20.119-66.007-20.436C63.039,133.057,7.459,186.545,5.897,253.063
					c-1.615,68.771,53.65,125.026,122.054,125.026c25.091,0,48.405-7.576,67.796-20.56c16.853-11.285,39.311-9.269,53.675,5.05
					c27.217,27.132,64.764,43.906,106.231,43.906c83.824,0,151.639-68.535,150.47-152.627
					C504.98,171.704,437.094,105.132,354.933,105.517z"/>
			</g>
		</g>
		<g>
			<g>
				<g>
					<path class="st2" d="M506.123,253.857c-1.143-82.154-69.029-148.725-151.19-148.34c-6.265,0.029-12.438,0.447-18.499,1.22
						c73.007,9.357,130.367,71.662,131.417,147.12c1.079,77.591-56.574,141.935-131.341,151.42
						c6.269,0.796,12.659,1.207,19.144,1.207C439.477,406.484,507.293,337.949,506.123,253.857z"/>
				</g>
			</g>
		</g>
		<g>
			<g>
				<path class="st3" d="M358.332,172.582c-22.369,0.414-42.58,9.361-57.335,24.026c-20.473,20.348-48.15,31.786-77.014,31.786
					h-7.914c-21.562,0-42.337-7.038-60.232-19.066c-8.678-5.832-19.076-9.256-30.283-9.48
					c-31.135-0.625-57.503,25.173-57.502,56.315c0.001,31.106,25.217,55.999,56.323,55.999c11.835,0,22.813-3.667,31.874-9.967
					c17.991-12.508,39.519-18.919,61.43-18.919h6.196c28.665,0,56.525,10.926,76.614,31.375
					c15.151,15.421,36.195,24.782,59.469,24.782c46.9,0,84.78-38.46,83.564-85.64C442.346,208.183,403.949,171.737,358.332,172.582z
					"/>
			</g>
		</g>
		<g>
			<g>
				<path class="st0" d="M355.653,412.347c-41.664,0-80.861-16.2-110.369-45.616c-6.856-6.834-15.987-10.599-25.708-10.599
					c-7.331,0-14.443,2.167-20.566,6.268c-21.055,14.099-45.627,21.551-71.058,21.551c-34.746,0-67.255-13.691-91.537-38.551
					C12.139,320.549-0.78,287.707,0.037,252.926c0.784-33.432,14.53-64.82,38.705-88.383c24.543-23.922,56.848-36.941,90.905-36.483
					c24.739,0.322,48.661,7.729,69.184,21.421c6.245,4.167,13.474,6.37,20.904,6.37c9.649,0,18.671-3.706,25.405-10.436
					c29.329-29.314,68.312-45.566,109.766-45.76l0.737-0.002c85.027,0,155.161,69.139,156.343,154.123
					c0.588,42.201-15.396,81.977-45.006,112.002C437.362,395.808,397.827,412.347,355.653,412.347z M219.576,344.406
					c12.846,0,24.916,4.979,33.986,14.02c27.296,27.21,63.553,42.195,102.092,42.195c39.011,0,75.582-15.298,102.976-43.077
					c27.389-27.773,42.175-64.568,41.632-103.606c-1.094-78.608-65.969-142.561-144.619-142.561l-0.681,0.002
					c-38.344,0.179-74.403,15.212-101.533,42.328c-8.947,8.943-20.913,13.868-33.693,13.868c-9.754,0.001-19.233-2.884-27.411-8.341
					c-18.635-12.432-40.361-19.158-62.829-19.45c-63.298-0.791-116.255,50.373-117.736,113.417
					c-0.741,31.598,10.993,61.433,33.044,84.007c22.058,22.582,51.588,35.018,83.15,35.018c23.1,0,45.416-6.767,64.534-19.569
					C200.546,347.26,209.913,344.406,219.576,344.406z"/>
			</g>
		</g>
		<g>
			<g>
				<path class="st0" d="M355.653,412.347c-41.664,0-80.861-16.2-110.369-45.616c-6.856-6.834-15.987-10.599-25.708-10.599
					c-7.331,0-14.443,2.167-20.566,6.268c-21.055,14.099-45.627,21.551-71.058,21.551c-34.746,0-67.255-13.691-91.537-38.551
					C12.139,320.549-0.78,287.707,0.037,252.926c0.784-33.432,14.53-64.82,38.705-88.383c24.543-23.922,56.848-36.941,90.905-36.483
					c24.739,0.322,48.661,7.729,69.184,21.421c6.245,4.167,13.474,6.37,20.904,6.37c9.649,0,18.671-3.706,25.405-10.436
					c29.329-29.314,68.312-45.566,109.766-45.76l0.737-0.002c85.027,0,155.161,69.139,156.343,154.123
					c0.588,42.201-15.396,81.977-45.006,112.002C437.362,395.808,397.827,412.347,355.653,412.347z M219.576,344.406
					c12.846,0,24.916,4.979,33.986,14.02c27.296,27.21,63.553,42.195,102.092,42.195c39.011,0,75.582-15.298,102.976-43.077
					c27.389-27.773,42.175-64.568,41.632-103.606c-1.094-78.608-65.969-142.561-144.619-142.561l-0.681,0.002
					c-38.344,0.179-74.403,15.212-101.533,42.328c-8.947,8.943-20.913,13.868-33.693,13.868c-9.754,0.001-19.233-2.884-27.411-8.341
					c-18.635-12.432-40.361-19.158-62.829-19.45c-63.298-0.791-116.255,50.373-117.736,113.417
					c-0.741,31.598,10.993,61.433,33.044,84.007c22.058,22.582,51.588,35.018,83.15,35.018c23.1,0,45.416-6.767,64.534-19.569
					C200.546,347.26,209.913,344.406,219.576,344.406z"/>
			</g>
		</g>
		<g>
			<g>
				<path class="st0" d="M359.957,345.295c-24.234,0-46.84-9.424-63.652-26.536c-18.493-18.824-44.893-29.621-72.431-29.621h-6.196
					c-21.184,0-41.269,6.179-58.084,17.87c-10.366,7.207-22.545,11.016-35.22,11.016c-34.288,0-62.185-27.751-62.186-61.862
					c0-16.435,6.544-32.01,18.427-43.854c12.154-12.116,28.189-18.667,45.056-18.322c12.035,0.241,23.597,3.864,33.435,10.476
					c17.587,11.822,37.284,18.07,56.962,18.07h7.915c27.48,0,53.363-10.683,72.881-30.082c16.259-16.161,38.051-25.298,61.359-25.73
					c0.557-0.01,1.106-0.015,1.661-0.015c48.113,0,88.262,39,89.498,86.937c0.626,24.309-8.352,47.262-25.28,64.632
					C407.12,335.698,384.339,345.295,359.957,345.295z M217.679,277.413h6.196c30.663,0,60.113,12.075,80.796,33.129
					c14.59,14.85,34.224,23.028,55.287,23.028c21.193,0,40.992-8.339,55.747-23.48c14.703-15.086,22.5-35.026,21.956-56.146
					c-1.073-41.638-35.964-75.513-77.777-75.513c-0.483,0-0.96,0.004-1.444,0.013c-20.272,0.375-39.205,8.303-53.311,22.323
					c-21.729,21.597-50.548,33.491-81.146,33.491h-7.915c-22.016,0-43.974-6.938-63.502-20.063
					c-7.968-5.354-17.348-8.288-27.13-8.484c-27.87-0.579-51.523,22.771-51.523,50.453c0.001,27.645,22.638,50.137,50.461,50.137
					c10.271,0,20.136-3.083,28.528-8.917C171.691,284.318,194.091,277.413,217.679,277.413z"/>
			</g>
		</g>
		<g>
			<g>
				<circle class="st5" cx="363.073" cy="256.155" r="38.513"/>
			</g>
		</g>
		<g>
			<g>
				<path class="st4" d="M363.073,217.642c-4.026,0-7.906,0.62-11.554,1.766c15.625,4.908,26.959,19.503,26.959,36.748
					c0,17.244-11.335,31.84-26.959,36.747c3.648,1.146,7.528,1.766,11.554,1.766c21.271,0,38.513-17.243,38.513-38.513
					C401.586,234.885,384.344,217.642,363.073,217.642z"/>
			</g>
		</g>
		<g>
			<g>
				<path class="st0" d="M363.073,300.531c-24.469,0-44.376-19.907-44.376-44.376c0-24.469,19.908-44.375,44.376-44.375
					s44.376,19.907,44.376,44.375C407.449,280.624,387.542,300.531,363.073,300.531z M363.073,223.505
					c-18.004,0-32.651,14.647-32.651,32.65c0,18.004,14.647,32.651,32.651,32.651c18.004,0,32.651-14.647,32.651-32.651
					C395.724,238.152,381.077,223.505,363.073,223.505z"/>
			</g>
		</g>
	</g>
</g>
</svg>
