<?xml version="1.0" ?><!DOCTYPE svg  PUBLIC '-//W3C//DTD SVG 1.1//EN'  'http://www.w3.org/Graphics/SVG/1.1/DTD/svg11.dtd'><svg enable-background="new 0 0 128 128" id="Layer_1" version="1.1" viewBox="0 0 128 128" xml:space="preserve" xmlns="http://www.w3.org/2000/svg" xmlns:xlink="http://www.w3.org/1999/xlink"><polygon fill="#A6A6AD" points="75,103 53,103 55,92 73,92 "/><path d="M107,95H21c-3.3,0-7-3.7-7-7V29c0-3.3,2.7-6,6-6h88c3.3,0,6,2.7,6,6v59C114,91.3,110.3,95,107,95z" fill="#3E3E42"/><polygon opacity="0.1" points="74.1,98 73,92 55,92 53.9,98 "/><path d="M14,83.3V89c0,3.3,2.7,6,6,6h88c3.3,0,6-2.7,6-6v-5.7c0-0.2-0.1-0.3-0.3-0.3H14.3C14.1,83,14,83.1,14,83.3z" fill="#D2D2D6"/><rect fill="#EFC48A" height="50" width="90" x="19" y="28"/><circle cx="64" cy="89" fill="#A6A6AD" r="3"/><path d="M80,104c0,0.6-0.4,1-1,1H49c-0.6,0-1-0.4-1-1v-1c0-0.6,0.4-1,1-1h30c0.6,0,1,0.4,1,1V104z" fill="#D2D2D6"/></svg>