<?xml version="1.0" encoding="utf-8"?>
<!-- Generator: Adobe Illustrator 18.0.0, SVG Export Plug-In . SVG Version: 6.00 Build 0)  -->
<!DOCTYPE svg PUBLIC "-//W3C//DTD SVG 1.1//EN" "http://www.w3.org/Graphics/SVG/1.1/DTD/svg11.dtd">
<svg version="1.1" id="Icon_Set" xmlns="http://www.w3.org/2000/svg" xmlns:xlink="http://www.w3.org/1999/xlink" x="0px" y="0px"
	 viewBox="0 0 512 512" style="enable-background:new 0 0 512 512;" xml:space="preserve">
<style type="text/css">
	.st0{fill:#4C4372;}
	.st1{fill:#F0C48A;}
	.st2{fill:#7BABF1;}
	.st3{fill:#FD919E;}
	.st4{fill:#A4CFF2;}
	.st5{fill:#D3E6F8;}
	.st6{fill:#FFFFFF;}
	.st7{fill:#E8677D;}
</style>
<g>
	<g>
		<g>
			<g>
				<circle class="st1" cx="256" cy="256" r="207"/>
			</g>
		</g>
	</g>
	<g>
		<g>
			<g>
				<path class="st0" d="M233.083,204.534c-1.281,0-2.572-0.418-3.651-1.279l-57.49-45.84c-2.532-2.019-2.948-5.707-0.929-8.239
					c2.019-2.532,5.708-2.947,8.239-0.929l57.49,45.84c2.531,2.019,2.947,5.707,0.929,8.239
					C236.513,203.778,234.806,204.534,233.083,204.534z"/>
			</g>
		</g>
		<g>
			<g>
				<path class="st0" d="M321.322,175.038c-0.478,0-0.964-0.059-1.448-0.182c-3.138-0.797-5.036-3.988-4.238-7.126l16.943-66.664
					c0.798-3.138,3.992-5.04,7.126-4.238c3.138,0.797,5.036,3.988,4.238,7.126L327,170.618
					C326.325,173.271,323.94,175.038,321.322,175.038z"/>
			</g>
		</g>
		<g>
			<g>
				<path class="st0" d="M368.393,421.485c-2.231,0-4.362-1.28-5.344-3.443l-38.6-85.126c-1.337-2.949-0.03-6.424,2.919-7.76
					c2.95-1.338,6.423-0.03,7.761,2.918l38.6,85.126c1.337,2.949,0.03,6.424-2.919,7.76
					C370.025,421.316,369.202,421.485,368.393,421.485z"/>
			</g>
		</g>
		<g>
			<g>
				<path class="st0" d="M159.544,350.043c-2.089,0-4.11-1.118-5.168-3.087c-1.534-2.852-0.465-6.406,2.386-7.94l71.812-38.621
					c2.852-1.535,6.406-0.466,7.94,2.387c1.534,2.852,0.465,6.406-2.386,7.94l-71.812,38.621
					C161.433,349.818,160.481,350.043,159.544,350.043z"/>
			</g>
		</g>
		<g>
			<g>
				<g>
					<g>
						<circle class="st7" cx="141.073" cy="118.36" r="48.788"/>
					</g>
				</g>
			</g>
			<g>
				<g>
					<g>
						<path class="st3" d="M92.284,118.36c0,9.215,2.557,17.831,6.997,25.183c6.798,3.595,14.543,5.639,22.769,5.639
							c26.945,0,48.788-21.843,48.788-48.788c0-9.215-2.557-17.832-6.997-25.183c-6.798-3.595-14.543-5.639-22.769-5.639
							C114.128,69.572,92.284,91.415,92.284,118.36z"/>
					</g>
				</g>
			</g>
		</g>
		<g>
			<g>
				<g>
					<g>
						<circle class="st7" cx="347.772" cy="54.651" r="48.788"/>
					</g>
				</g>
			</g>
			<g>
				<g>
					<g>
						<path class="st3" d="M298.983,54.651c0,9.215,2.557,17.831,6.997,25.183c6.798,3.595,14.543,5.639,22.768,5.639
							c26.945,0,48.789-21.843,48.789-48.788c0-9.215-2.557-17.832-6.997-25.183c-6.798-3.595-14.543-5.639-22.769-5.639
							C320.827,5.863,298.983,27.706,298.983,54.651z"/>
					</g>
				</g>
			</g>
		</g>
		<g>
			<g>
				<g>
					<g>
						<circle class="st7" cx="393.682" cy="457.349" r="48.788"/>
					</g>
				</g>
			</g>
			<g>
				<g>
					<g>
						<path class="st3" d="M344.894,457.349c0,9.215,2.557,17.831,6.997,25.183c6.798,3.595,14.543,5.639,22.769,5.639
							c26.945,0,48.789-21.843,48.789-48.788c0-9.215-2.557-17.832-6.997-25.183c-6.798-3.595-14.543-5.639-22.768-5.639
							C366.737,408.561,344.894,430.404,344.894,457.349z"/>
					</g>
				</g>
			</g>
		</g>
		<g>
			<g>
				<g>
					<g>
						<circle class="st7" cx="118.318" cy="370.264" r="48.788"/>
					</g>
				</g>
			</g>
			<g>
				<g>
					<g>
						<path class="st3" d="M69.529,370.264c0,9.215,2.557,17.831,6.997,25.183c6.798,3.595,14.543,5.639,22.769,5.639
							c26.945,0,48.788-21.843,48.788-48.788c0-9.215-2.557-17.832-6.997-25.183c-6.798-3.595-14.543-5.639-22.769-5.639
							C91.373,321.475,69.529,343.319,69.529,370.264z"/>
					</g>
				</g>
			</g>
		</g>
		<g>
			<g>
				<g>
					<circle class="st4" cx="299.667" cy="253.222" r="86.074"/>
				</g>
			</g>
		</g>
		<g>
			<g>
				<g>
					<path class="st5" d="M299.667,167.148c-47.537,0-86.074,38.537-86.074,86.074c0,19.694,6.629,37.832,17.758,52.337
						c14.067,10.01,31.256,15.917,49.836,15.917c47.537,0,86.074-38.537,86.074-86.074c0-19.695-6.629-37.832-17.758-52.337
						C335.436,173.055,318.246,167.148,299.667,167.148z"/>
				</g>
			</g>
		</g>
		<g>
			<g>
				<g>
					<circle class="st7" cx="299.667" cy="253.222" r="48.788"/>
				</g>
			</g>
		</g>
		<g>
			<g>
				<g>
					<path class="st3" d="M250.878,253.222c0,9.215,2.557,17.831,6.997,25.183c6.798,3.595,14.543,5.639,22.769,5.639
						c26.945,0,48.789-21.843,48.789-48.788c0-9.215-2.557-17.832-6.997-25.184c-6.798-3.595-14.543-5.639-22.769-5.639
						C272.721,204.434,250.878,226.277,250.878,253.222z"/>
				</g>
			</g>
		</g>
		<g>
			<g>
				<g>
					<path class="st0" d="M141.072,173.011c-30.134,0-54.651-24.516-54.651-54.651c0-30.135,24.516-54.651,54.651-54.651
						c30.135,0,54.651,24.516,54.651,54.651C195.724,148.495,171.208,173.011,141.072,173.011z M141.072,75.434
						c-23.669,0-42.926,19.256-42.926,42.926c0,23.669,19.256,42.926,42.926,42.926s42.926-19.257,42.926-42.926
						C183.999,94.69,164.742,75.434,141.072,75.434z"/>
				</g>
			</g>
		</g>
		<g>
			<g>
				<g>
					<path class="st0" d="M347.772,109.302c-30.135,0-54.651-24.516-54.651-54.651C293.121,24.516,317.637,0,347.772,0
						c30.135,0,54.651,24.516,54.651,54.651C402.423,84.786,377.906,109.302,347.772,109.302z M347.772,11.725
						c-23.669,0-42.926,19.257-42.926,42.926c0,23.669,19.257,42.926,42.926,42.926c23.669,0,42.926-19.256,42.926-42.926
						C390.698,30.982,371.441,11.725,347.772,11.725z"/>
				</g>
			</g>
		</g>
		<g>
			<g>
				<g>
					<path class="st0" d="M393.682,512c-30.135,0-54.651-24.516-54.651-54.651c0-30.135,24.516-54.651,54.651-54.651
						c30.134,0,54.651,24.516,54.651,54.651C448.333,487.484,423.817,512,393.682,512z M393.682,414.423
						c-23.669,0-42.926,19.256-42.926,42.926c0,23.669,19.257,42.926,42.926,42.926c23.669,0,42.925-19.257,42.925-42.926
						C436.608,433.679,417.351,414.423,393.682,414.423z"/>
				</g>
			</g>
		</g>
		<g>
			<g>
				<g>
					<path class="st0" d="M118.318,424.915c-30.135,0-54.651-24.516-54.651-54.651c0-30.134,24.516-54.651,54.651-54.651
						c30.135,0,54.651,24.516,54.651,54.651C172.969,400.399,148.452,424.915,118.318,424.915z M118.318,327.338
						c-23.669,0-42.926,19.256-42.926,42.926c0,23.669,19.256,42.926,42.926,42.926c23.669,0,42.926-19.257,42.926-42.926
						C161.243,346.595,141.987,327.338,118.318,327.338z"/>
				</g>
			</g>
		</g>
		<g>
			<g>
				<g>
					<path class="st0" d="M299.667,345.158c-50.694,0-91.937-41.242-91.937-91.936c0-50.694,41.242-91.936,91.937-91.936
						c50.694,0,91.936,41.242,91.936,91.936C391.603,303.916,350.361,345.158,299.667,345.158z M299.667,173.011
						c-44.228,0-80.211,35.982-80.211,80.211c0,44.229,35.983,80.211,80.211,80.211c44.228,0,80.211-35.983,80.211-80.211
						C379.878,208.993,343.895,173.011,299.667,173.011z"/>
				</g>
			</g>
		</g>
		<g>
			<g>
				<g>
					<path class="st0" d="M299.667,307.873c-30.135,0-54.651-24.516-54.651-54.651c0-30.135,24.517-54.651,54.651-54.651
						c30.135,0,54.651,24.516,54.651,54.651C354.318,283.357,329.802,307.873,299.667,307.873z M299.667,210.296
						c-23.67,0-42.926,19.256-42.926,42.926c0,23.669,19.256,42.926,42.926,42.926c23.669,0,42.926-19.257,42.926-42.926
						C342.593,229.553,323.336,210.296,299.667,210.296z"/>
				</g>
			</g>
		</g>
		<g>
			<g>
				<path class="st0" d="M187.22,108.374c-2.479,0-4.782-1.584-5.581-4.072c-0.99-3.083,0.707-6.385,3.79-7.374l113.137-36.33
					c3.081-0.992,6.385,0.707,7.374,3.79c0.99,3.083-0.707,6.384-3.79,7.374l-113.136,36.33
					C188.418,108.283,187.814,108.374,187.22,108.374z"/>
			</g>
		</g>
		<g>
			<g>
				<path class="st0" d="M118.322,327.338c-0.075,0-0.149-0.001-0.224-0.004c-3.235-0.122-5.759-2.843-5.638-6.079l5.913-157.313
					c0.122-3.235,2.817-5.766,6.079-5.638c3.235,0.122,5.76,2.843,5.638,6.079l-5.913,157.314
					C124.057,324.856,121.457,327.338,118.322,327.338z"/>
			</g>
		</g>
	</g>
</g>
</svg>
