<svg xmlns="http://www.w3.org/2000/svg" viewBox="0 0 6769 1024"><defs><style>.cls-1,.cls-6{fill:#4ab969;}.cls-2,.cls-3,.cls-4{fill:none;stroke-miterlimit:10;stroke-width:20px;}.cls-2{stroke:#4ab969;}.cls-2,.cls-4{stroke-linecap:round;}.cls-3,.cls-4{stroke:#db4140;}.cls-5{fill:#0091d0;}.cls-6{font-size:1000px;font-family:Rockwell, Rockwell;letter-spacing:-0.03em;}.cls-7,.cls-8{fill:#db4140;}.cls-8{letter-spacing:-0.04em;}.cls-9{fill:#a7a9ac;}</style></defs><title>banner</title><g id="Layer_17" data-name="Layer 17"><path class="cls-1" d="M551.5,43A468.63,468.63,0,0,1,733.85,943.2,468.63,468.63,0,0,1,369.15,79.8,465.53,465.53,0,0,1,551.5,43m0-40C270.66,3,43,230.66,43,511.5S270.66,1020,551.5,1020,1060,792.34,1060,511.5,832.34,3,551.5,3Z"/><circle class="cls-2" cx="550.96" cy="510.96" r="433.04"/><line class="cls-3" x1="715.91" y1="790.26" x2="818.49" y2="709.49"/><line class="cls-3" x1="686.43" y1="764.19" x2="756.67" y2="654.14"/><line class="cls-3" x1="660.45" y1="754.79" x2="686.26" y2="626.82"/><line class="cls-3" x1="630.21" y1="754.77" x2="617.26" y2="624.86"/><line class="cls-3" x1="592.42" y1="763.77" x2="555.2" y2="638.64"/><line class="cls-3" x1="549.28" y1="780.47" x2="500.13" y2="659.52"/><line class="cls-3" x1="503.21" y1="801.21" x2="451.87" y2="681.17"/><line class="cls-3" x1="454.88" y1="821.46" x2="411.99" y2="698.15"/><line class="cls-3" x1="401.84" y1="835.61" x2="385.17" y2="706.12"/><line class="cls-3" x1="338.94" y1="831.54" x2="378.85" y2="707.23"/><line class="cls-3" x1="279.74" y1="791.17" x2="381.65" y2="709.56"/><line class="cls-3" x1="246.64" y1="718.57" x2="376.09" y2="701.56"/><line class="cls-3" x1="256.19" y1="645" x2="376.88" y2="694.81"/><line class="cls-3" x1="290.16" y1="588.62" x2="390.62" y2="672.01"/><line class="cls-3" x1="333.36" y1="542.95" x2="420.56" y2="640.12"/><line class="cls-3" x1="379.6" y1="502.73" x2="460.93" y2="604.86"/><line class="cls-3" x1="423.38" y1="466.52" x2="505.32" y2="568.16"/><line class="cls-3" x1="458.18" y1="435.17" x2="548.27" y2="529.67"/><line class="cls-3" x1="476.32" y1="413.51" x2="585.55" y2="485.02"/><line class="cls-3" x1="476.23" y1="416.75" x2="606.76" y2="419.47"/><path class="cls-4" d="M475.32,410c-29,58.92-348.1,241.21-195.79,381.61,174,160.44,248.37-129.62,436-.91"/><path class="cls-5" d="M312,176l-3.47,185.05,23.94.45L355,338l.41-22.1,69.05,1.29-.86,46,46,.86-.84,45.11,138.1,2.59.84-45.11,46,.86,3.08-115.07C886.09,256.75,884,370.91,884,370.91c3.47-185.05-121.78-185.56-225.8-188.43h0L427,179.08l-.84,45.11-69.05-1.29.43-23-21.67-23.43Z"/><text class="cls-6" transform="translate(1139.45 867.99) scale(1.05 1.1)">sc<tspan class="cls-7" x="929" y="0">R</tspan><tspan class="cls-8" x="1508.01" y="0">N</tspan><tspan class="cls-7" x="2187.11" y="0">A</tspan><tspan class="cls-9" x="2860.35" y="0">-</tspan><tspan class="cls-5" x="3189.36" y="0">tools</tspan></text></g></svg>