<svg width="43" height="43" xmlns="http://www.w3.org/2000/svg">

 <g>
  <title>background</title>
  <rect fill="none" id="canvas_background" height="45" width="45" y="-1" x="-1"/>
 </g>
 <g>
  <g stroke="null" id="svg_2">
   <title stroke="null" fill="#ffffff">Layer 1</title>
   <path stroke="null" fill="#ffffff" id="svg_1" d="m16.870668,33.426682q0,0.270222 -0.225185,0.540445l-7.183411,7.183411q-0.225185,0.202667 -0.517926,0.202667q-0.270222,0 -0.517926,-0.202667l-7.205929,-7.205929q-0.337778,-0.360296 -0.15763,-0.788149q0.180148,-0.450371 0.675556,-0.450371l4.323558,0l0,-30.985496q0,-0.315259 0.202667,-0.517926t0.517926,-0.202667l4.323558,0q0.315259,0 0.517926,0.202667t0.202667,0.517926l0,30.985496l4.323558,0q0.315259,0 0.517926,0.202667t0.202667,0.517926zm23.779567,2.882372l0,4.323558q0,0.315259 -0.202667,0.517926t-0.517926,0.202667l-18.735416,0q-0.315259,0 -0.517926,-0.202667t-0.202667,-0.517926l0,-4.323558q0,-0.315259 0.202667,-0.517926t0.517926,-0.202667l18.735416,0q0.315259,0 0.517926,0.202667t0.202667,0.517926zm-4.323558,-11.529487l0,4.323558q0,0.315259 -0.202667,0.517926t-0.517926,0.202667l-14.411859,0q-0.315259,0 -0.517926,-0.202667t-0.202667,-0.517926l0,-4.323558q0,-0.315259 0.202667,-0.517926t0.517926,-0.202667l14.411859,0q0.315259,0 0.517926,0.202667t0.202667,0.517926zm-4.323558,-11.529487l0,4.323558q0,0.315259 -0.202667,0.517926t-0.517926,0.202667l-10.088301,0q-0.315259,0 -0.517926,-0.202667t-0.202667,-0.517926l0,-4.323558q0,-0.315259 0.202667,-0.517926t0.517926,-0.202667l10.088301,0q0.315259,0 0.517926,0.202667t0.202667,0.517926zm-4.323558,-11.529487l0,4.323558q0,0.315259 -0.202667,0.517926t-0.517926,0.202667l-5.764744,0q-0.315259,0 -0.517926,-0.202667t-0.202667,-0.517926l0,-4.323558q0,-0.315259 0.202667,-0.517926t0.517926,-0.202667l5.764744,0q0.315259,0 0.517926,0.202667t0.202667,0.517926z"/>
  </g>
 </g>
</svg>