<svg xmlns="http://www.w3.org/2000/svg" viewBox="0 0 1600 1601"><defs><style>.cls-1{font-size:289.47px;font-family:Rockwell, Rockwell;letter-spacing:-0.02em;}.cls-1,.cls-7{fill:#4ab969;}.cls-2,.cls-3,.cls-4{fill:#db4140;}.cls-3{letter-spacing:-0.04em;}.cls-4{letter-spacing:-0.03em;}.cls-5{fill:#a7a9ac;}.cls-6{fill:#0091d0;}.cls-10,.cls-8,.cls-9{fill:none;stroke-miterlimit:10;stroke-width:20px;}.cls-8{stroke:#4ab969;}.cls-10,.cls-8{stroke-linecap:round;}.cls-10,.cls-9{stroke:#db4140;}</style></defs><title>square</title><g id="Layer_18" data-name="Layer 18"><text class="cls-1" transform="translate(0.45 1448.51) scale(1.05 1.1)">sc<tspan class="cls-2" x="268.92" y="0">R</tspan><tspan class="cls-3" x="436.53" y="0">N</tspan><tspan class="cls-4" x="633.11" y="0">A</tspan><tspan class="cls-5" x="827.99" y="0">-</tspan><tspan class="cls-6" x="923.23" y="0">tools</tspan></text><path class="cls-7" d="M800.5,112.5a468.63,468.63,0,0,1,182.35,900.2,468.63,468.63,0,0,1-364.7-863.4A465.53,465.53,0,0,1,800.5,112.5m0-40C519.66,72.5,292,300.16,292,581s227.66,508.5,508.5,508.5S1309,861.84,1309,581,1081.34,72.5,800.5,72.5Z"/><circle class="cls-8" cx="799.96" cy="580.46" r="433.04"/><line class="cls-9" x1="964.91" y1="859.76" x2="1067.49" y2="778.99"/><line class="cls-9" x1="935.43" y1="833.69" x2="1005.67" y2="723.64"/><line class="cls-9" x1="909.45" y1="824.29" x2="935.26" y2="696.32"/><line class="cls-9" x1="879.21" y1="824.27" x2="866.26" y2="694.36"/><line class="cls-9" x1="841.42" y1="833.27" x2="804.2" y2="708.14"/><line class="cls-9" x1="798.28" y1="849.97" x2="749.13" y2="729.02"/><line class="cls-9" x1="752.21" y1="870.71" x2="700.87" y2="750.67"/><line class="cls-9" x1="703.88" y1="890.96" x2="660.99" y2="767.65"/><line class="cls-9" x1="650.84" y1="905.11" x2="634.17" y2="775.62"/><line class="cls-9" x1="587.94" y1="901.04" x2="627.85" y2="776.73"/><line class="cls-9" x1="528.74" y1="860.67" x2="630.65" y2="779.06"/><line class="cls-9" x1="495.64" y1="788.07" x2="625.09" y2="771.06"/><line class="cls-9" x1="505.19" y1="714.5" x2="625.88" y2="764.31"/><line class="cls-9" x1="539.16" y1="658.12" x2="639.62" y2="741.51"/><line class="cls-9" x1="582.36" y1="612.45" x2="669.56" y2="709.62"/><line class="cls-9" x1="628.6" y1="572.23" x2="709.93" y2="674.36"/><line class="cls-9" x1="672.38" y1="536.02" x2="754.32" y2="637.66"/><line class="cls-9" x1="707.18" y1="504.67" x2="797.27" y2="599.17"/><line class="cls-9" x1="725.32" y1="483.01" x2="834.55" y2="554.52"/><line class="cls-9" x1="725.23" y1="486.25" x2="855.76" y2="488.97"/><path class="cls-10" d="M724.32,479.46c-29,58.92-348.1,241.21-195.79,381.61,174,160.44,248.37-129.62,436-.91"/><path class="cls-6" d="M561,245.5l-3.47,185.05,23.94.45L604,407.48l.41-22.1,69.05,1.29-.86,46,46,.86-.84,45.11,138.1,2.59.84-45.11,46,.86L905.84,322C1135.09,326.25,1133,440.41,1133,440.41c3.47-185.05-121.78-185.56-225.8-188.43h0L676,248.58l-.84,45.11-69.05-1.29.43-23-21.67-23.43Z"/></g></svg>