<?xml version="1.0" encoding="UTF-8"?>
<svg version="1.1" viewBox="0 0 6900 1024" xmlns="http://www.w3.org/2000/svg" xmlns:cc="http://creativecommons.org/ns#" xmlns:dc="http://purl.org/dc/elements/1.1/" xmlns:rdf="http://www.w3.org/1999/02/22-rdf-syntax-ns#">
 <metadata>
  <rdf:RDF>
   <cc:Work rdf:about="">
    <dc:format>image/svg+xml</dc:format>
    <dc:type rdf:resource="http://purl.org/dc/dcmitype/StillImage"/>
    <dc:title>banner</dc:title>
   </cc:Work>
  </rdf:RDF>
 </metadata>
 <defs>
  <style>.cls-1,.cls-6{fill:#4ab969;}.cls-2,.cls-3,.cls-4{fill:none;stroke-miterlimit:10;stroke-width:20px;}.cls-2{stroke:#4ab969;}.cls-2,.cls-4{stroke-linecap:round;}.cls-3,.cls-4{stroke:#db4140;}.cls-5{fill:#0091d0;}.cls-6{font-size:1000px;font-family:Rockwell, Rockwell;letter-spacing:-0.03em;}.cls-7,.cls-8{fill:#db4140;}.cls-8{letter-spacing:-0.04em;}.cls-9{fill:#a7a9ac;}</style>
 </defs>
 <title>banner</title>
 <path class="cls-1" d="m551.5 43a468.63 468.63 0 0 1 182.35 900.2 468.63 468.63 0 0 1-364.7-863.4 465.53 465.53 0 0 1 182.35-36.8m0-40c-280.84 0-508.5 227.66-508.5 508.5s227.66 508.5 508.5 508.5 508.5-227.66 508.5-508.5-227.66-508.5-508.5-508.5z"/>
 <circle class="cls-2" cx="550.96" cy="510.96" r="433.04"/>
 <line class="cls-3" x1="715.91" x2="818.49" y1="790.26" y2="709.49"/>
 <line class="cls-3" x1="686.43" x2="756.67" y1="764.19" y2="654.14"/>
 <line class="cls-3" x1="660.45" x2="686.26" y1="754.79" y2="626.82"/>
 <line class="cls-3" x1="630.21" x2="617.26" y1="754.77" y2="624.86"/>
 <line class="cls-3" x1="592.42" x2="555.2" y1="763.77" y2="638.64"/>
 <line class="cls-3" x1="549.28" x2="500.13" y1="780.47" y2="659.52"/>
 <line class="cls-3" x1="503.21" x2="451.87" y1="801.21" y2="681.17"/>
 <line class="cls-3" x1="454.88" x2="411.99" y1="821.46" y2="698.15"/>
 <line class="cls-3" x1="401.84" x2="385.17" y1="835.61" y2="706.12"/>
 <line class="cls-3" x1="338.94" x2="378.85" y1="831.54" y2="707.23"/>
 <line class="cls-3" x1="279.74" x2="381.65" y1="791.17" y2="709.56"/>
 <line class="cls-3" x1="246.64" x2="376.09" y1="718.57" y2="701.56"/>
 <line class="cls-3" x1="256.19" x2="376.88" y1="645" y2="694.81"/>
 <line class="cls-3" x1="290.16" x2="390.62" y1="588.62" y2="672.01"/>
 <line class="cls-3" x1="333.36" x2="420.56" y1="542.95" y2="640.12"/>
 <line class="cls-3" x1="379.6" x2="460.93" y1="502.73" y2="604.86"/>
 <line class="cls-3" x1="423.38" x2="505.32" y1="466.52" y2="568.16"/>
 <line class="cls-3" x1="458.18" x2="548.27" y1="435.17" y2="529.67"/>
 <line class="cls-3" x1="476.32" x2="585.55" y1="413.51" y2="485.02"/>
 <line class="cls-3" x1="476.23" x2="606.76" y1="416.75" y2="419.47"/>
 <path class="cls-4" d="m475.32 410c-29 58.92-348.1 241.21-195.79 381.61 174 160.44 248.37-129.62 436-0.91"/>
 <path class="cls-5" d="m312 176-3.47 185.05 23.94 0.45 22.53-23.5 0.41-22.1 69.05 1.29-0.86 46 46 0.86-0.84 45.11 138.1 2.59 0.84-45.11 46 0.86 3.08-115.07c229.31 4.32 227.22 118.48 227.22 118.48 3.47-185.05-121.78-185.56-225.8-188.43l-231.2-3.4-0.84 45.11-69.05-1.29 0.43-23-21.67-23.43z"/>
 <text class="cls-6" transform="scale(.97701 1.0235)" x="1166.2643" y="848.03357">sc<tspan class="cls-7" x="2164.6692" y="848.03357" stroke-width="1.0747">R</tspan><tspan class="cls-8" x="2786.9365" y="848.03357" stroke-width="1.0747">N</tspan><tspan class="cls-7" x="3516.7717" y="848.03357" stroke-width="1.0747">A</tspan><tspan class="cls-9" x="4240.3091" y="848.03357" stroke-width="1.0747">-</tspan><tspan class="cls-5" x="4593.8989" y="848.03357" stroke-width="1.0747">tools</tspan></text>
</svg>
