<svg xmlns="http://www.w3.org/2000/svg" viewBox="0 0 1024 1024"><defs><style>.cls-1{fill:#4ab969;}.cls-2,.cls-3,.cls-4{fill:none;stroke-miterlimit:10;stroke-width:20px;}.cls-2{stroke:#4ab969;}.cls-2,.cls-4{stroke-linecap:round;}.cls-3,.cls-4{stroke:#db4140;}.cls-5{fill:#0091d0;}</style></defs><title>icon</title><g id="Cell"><path class="cls-1" d="M512.5,47A468.63,468.63,0,0,1,694.85,947.2,468.63,468.63,0,0,1,330.15,83.8,465.53,465.53,0,0,1,512.5,47m0-40C231.66,7,4,234.66,4,515.5S231.66,1024,512.5,1024,1021,796.34,1021,515.5,793.34,7,512.5,7Z"/><circle class="cls-2" cx="511.96" cy="514.96" r="433.04"/></g><g id="Layer_13_copy_2" data-name="Layer 13 copy 2"><line class="cls-3" x1="676.91" y1="794.26" x2="779.49" y2="713.49"/><line class="cls-3" x1="647.43" y1="768.19" x2="717.67" y2="658.14"/><line class="cls-3" x1="621.45" y1="758.79" x2="647.26" y2="630.82"/><line class="cls-3" x1="591.21" y1="758.77" x2="578.26" y2="628.86"/><line class="cls-3" x1="553.42" y1="767.77" x2="516.2" y2="642.64"/><line class="cls-3" x1="510.28" y1="784.47" x2="461.13" y2="663.52"/><line class="cls-3" x1="464.21" y1="805.21" x2="412.87" y2="685.17"/><line class="cls-3" x1="415.88" y1="825.46" x2="372.99" y2="702.15"/><line class="cls-3" x1="362.84" y1="839.61" x2="346.17" y2="710.12"/><line class="cls-3" x1="299.94" y1="835.54" x2="339.85" y2="711.23"/><line class="cls-3" x1="240.74" y1="795.17" x2="342.65" y2="713.56"/><line class="cls-3" x1="207.64" y1="722.57" x2="337.09" y2="705.56"/><line class="cls-3" x1="217.19" y1="649" x2="337.88" y2="698.81"/><line class="cls-3" x1="251.16" y1="592.62" x2="351.62" y2="676.01"/><line class="cls-3" x1="294.36" y1="546.95" x2="381.56" y2="644.12"/><line class="cls-3" x1="340.6" y1="506.73" x2="421.93" y2="608.86"/><line class="cls-3" x1="384.38" y1="470.52" x2="466.32" y2="572.16"/><line class="cls-3" x1="419.18" y1="439.17" x2="509.27" y2="533.67"/><line class="cls-3" x1="437.32" y1="417.51" x2="546.55" y2="489.02"/><line class="cls-3" x1="437.23" y1="420.75" x2="567.76" y2="423.47"/><path class="cls-4" d="M436.32,414c-29,58.92-348.1,241.21-195.79,381.61,174,160.44,248.37-129.62,436-.91"/><path class="cls-5" d="M273,180l-3.47,185.05,23.94.45L316,342l.41-22.1,69.05,1.29-.86,46,46,.86-.84,45.11,138.1,2.59.84-45.11,46,.86,3.08-115.07C847.09,260.75,845,374.91,845,374.91c3.47-185.05-121.78-185.56-225.8-188.43h0L388,183.08l-.84,45.11-69.05-1.29.43-23-21.67-23.43Z"/></g></svg>