<svg xmlns="http://www.w3.org/2000/svg" viewBox="0 0 6769 2256"><defs><style>.cls-1,.cls-6{fill:#4ab969;}.cls-2,.cls-3,.cls-4{fill:none;stroke-miterlimit:10;stroke-width:20px;}.cls-2{stroke:#4ab969;}.cls-2,.cls-4{stroke-linecap:round;}.cls-3,.cls-4{stroke:#db4140;}.cls-5{fill:#0091d0;}.cls-6{font-size:1000px;font-family:Rockwell, Rockwell;letter-spacing:-0.03em;}.cls-7,.cls-8{fill:#db4140;}.cls-8{letter-spacing:-0.04em;}.cls-9{fill:#a7a9ac;}</style></defs><title>twitter</title><g id="Layer_19" data-name="Layer 19"><path class="cls-1" d="M559.5,848a466.91,466.91,0,1,1-182.35,36.8A465.53,465.53,0,0,1,559.5,848m0-40C278.66,808,51,1035.66,51,1316.5S278.66,1825,559.5,1825,1068,1597.34,1068,1316.5,840.34,808,559.5,808Z"/><circle class="cls-2" cx="558.96" cy="1315.96" r="433.04"/><line class="cls-3" x1="723.91" y1="1595.26" x2="826.49" y2="1514.49"/><line class="cls-3" x1="694.43" y1="1569.19" x2="764.67" y2="1459.14"/><line class="cls-3" x1="668.45" y1="1559.79" x2="694.26" y2="1431.82"/><line class="cls-3" x1="638.21" y1="1559.77" x2="625.26" y2="1429.86"/><line class="cls-3" x1="600.42" y1="1568.77" x2="563.2" y2="1443.64"/><line class="cls-3" x1="557.28" y1="1585.47" x2="508.13" y2="1464.52"/><line class="cls-3" x1="511.21" y1="1606.21" x2="459.87" y2="1486.17"/><line class="cls-3" x1="462.88" y1="1626.46" x2="419.99" y2="1503.15"/><line class="cls-3" x1="409.84" y1="1640.61" x2="393.17" y2="1511.12"/><line class="cls-3" x1="346.94" y1="1636.54" x2="386.85" y2="1512.23"/><line class="cls-3" x1="287.74" y1="1596.17" x2="389.65" y2="1514.56"/><line class="cls-3" x1="254.64" y1="1523.57" x2="384.09" y2="1506.56"/><line class="cls-3" x1="264.19" y1="1450" x2="384.88" y2="1499.81"/><line class="cls-3" x1="298.16" y1="1393.62" x2="398.62" y2="1477.01"/><line class="cls-3" x1="341.36" y1="1347.95" x2="428.56" y2="1445.12"/><line class="cls-3" x1="387.6" y1="1307.73" x2="468.93" y2="1409.86"/><line class="cls-3" x1="431.38" y1="1271.52" x2="513.32" y2="1373.16"/><line class="cls-3" x1="466.18" y1="1240.17" x2="556.27" y2="1334.67"/><line class="cls-3" x1="484.32" y1="1218.51" x2="593.55" y2="1290.02"/><line class="cls-3" x1="484.23" y1="1221.75" x2="614.76" y2="1224.47"/><path class="cls-4" d="M483.32,1215c-29,58.92-348.1,241.21-195.79,381.61,174,160.44,248.37-129.62,436-.91"/><path class="cls-5" d="M320,981l-3.47,185.05,23.94.45L363,1143l.41-22.1,69.05,1.29-.86,46,46,.86-.84,45.11,138.1,2.59.84-45.11,46,.86,3.08-115.07C894.09,1061.75,892,1175.91,892,1175.91c3.47-185.05-121.78-185.56-225.8-188.43h0L435,984.08l-.84,45.11-69.05-1.29.43-23-21.67-23.43Z"/><text class="cls-6" transform="translate(1147.45 1672.99) scale(1.05 1.1)">sc<tspan class="cls-7" x="929" y="0">R</tspan><tspan class="cls-8" x="1508.01" y="0">N</tspan><tspan class="cls-7" x="2187.11" y="0">A</tspan><tspan class="cls-9" x="2860.35" y="0">-</tspan><tspan class="cls-5" x="3189.36" y="0">tools</tspan></text></g></svg>